<svg width="37" height="56" viewBox="0 0 37 56" fill="none" xmlns="http://www.w3.org/2000/svg">
<path d="M18.5002 0C8.28279 0 0 8.28277 0 18.5002C0 21.7863 0.882461 24.8596 2.38468 27.5329C2.6342 27.9769 2.89575 28.414 3.17973 28.8349L18.5002 55.5006L33.8207 28.8349C34.0566 28.4857 34.2601 28.1157 34.4706 27.7503L34.6163 27.5329C36.1171 24.8596 37.0005 21.7863 37.0005 18.5002C37.0005 8.28277 28.717 0 18.5002 0ZM18.5002 9.2501C23.6086 9.2501 27.7504 13.3916 27.7504 18.5002C27.7504 23.6086 23.6086 27.7503 18.5002 27.7503C13.3916 27.7503 9.25012 23.6086 9.25012 18.5002C9.25012 13.3916 13.3916 9.2501 18.5002 9.2501Z" fill="#E74C3C"/>
<path d="M18.5004 6.93775C12.1146 6.93775 6.93775 12.1146 6.93775 18.5004C6.93775 24.8852 12.1146 30.063 18.5004 30.063C24.8853 30.063 30.063 24.8852 30.063 18.5004C30.063 12.1146 24.8853 6.93775 18.5004 6.93775ZM18.5004 11.5628C22.3323 11.5628 25.438 14.6687 25.438 18.5004C25.438 22.332 22.3323 25.4379 18.5004 25.4379C14.6685 25.4379 11.5628 22.332 11.5628 18.5004C11.5628 14.6687 14.6685 11.5628 18.5004 11.5628Z" fill="#C0392B"/>
</svg>
