<svg width="32" height="32" viewBox="0 0 32 32" fill="none" xmlns="http://www.w3.org/2000/svg">
<path d="M29.333 22.5598V26.5598C29.3345 26.9311 29.2584 27.2987 29.1097 27.6389C28.9609 27.9791 28.7427 28.2846 28.4691 28.5356C28.1955 28.7866 27.8724 28.9777 27.5207 29.0967C27.1689 29.2157 26.7962 29.2599 26.4264 29.2264C22.3235 28.7806 18.3824 27.3786 14.9198 25.1331C11.6982 23.086 8.96691 20.3547 6.91981 17.1332C4.66646 13.6548 3.26415 9.69454 2.8265 5.57324C2.79318 5.20453 2.837 4.83292 2.95516 4.48208C3.07333 4.13123 3.26326 3.80884 3.51285 3.53541C3.76244 3.26199 4.06623 3.04353 4.40488 2.89395C4.74352 2.74437 5.1096 2.66694 5.47982 2.66659H9.47979C10.1269 2.66022 10.7542 2.88936 11.2448 3.3113C11.7354 3.73323 12.0559 4.31918 12.1464 4.95991C12.3153 6.23999 12.6284 7.49686 13.0798 8.70655C13.2592 9.18378 13.298 9.70243 13.1916 10.2011C13.0853 10.6997 12.8383 11.1574 12.4798 11.5199L10.7865 13.2132C12.6845 16.5512 15.4484 19.3151 18.7864 21.2131L20.4797 19.5198C20.8422 19.1613 21.2999 18.9143 21.7985 18.808C22.2972 18.7016 22.8158 18.7404 23.293 18.9198C24.5027 19.3712 25.7596 19.6843 27.0397 19.8532C27.6874 19.9445 28.2789 20.2708 28.7017 20.7698C29.1246 21.2689 29.3492 21.9059 29.333 22.5598Z" stroke="#F3F3F3" stroke-width="4" stroke-linecap="round" stroke-linejoin="round"/>
</svg>
