<svg width="32" height="32" viewBox="0 0 32 32" fill="none" xmlns="http://www.w3.org/2000/svg">
<path d="M29.333 22.5597V26.5597C29.3345 26.931 29.2584 27.2985 29.1097 27.6388C28.9609 27.979 28.7427 28.2844 28.4691 28.5355C28.1955 28.7865 27.8724 28.9776 27.5207 29.0966C27.1689 29.2155 26.7962 29.2597 26.4264 29.2263C22.3235 28.7805 18.3824 27.3785 14.9198 25.133C11.6982 23.0859 8.96691 20.3546 6.91981 17.133C4.66646 13.6547 3.26415 9.69442 2.8265 5.57312C2.79318 5.20441 2.837 4.8328 2.95516 4.48195C3.07333 4.13111 3.26326 3.80871 3.51285 3.53529C3.76244 3.26187 4.06623 3.04341 4.40488 2.89383C4.74352 2.74425 5.1096 2.66681 5.47982 2.66647H9.47979C10.1269 2.6601 10.7542 2.88924 11.2448 3.31117C11.7354 3.73311 12.0559 4.31905 12.1464 4.95979C12.3153 6.23987 12.6284 7.49674 13.0798 8.70643C13.2592 9.18366 13.298 9.70231 13.1916 10.2009C13.0853 10.6995 12.8383 11.1572 12.4798 11.5197L10.7865 13.2131C12.6845 16.5511 15.4484 19.315 18.7864 21.213L20.4797 19.5197C20.8422 19.1612 21.2999 18.9142 21.7985 18.8078C22.2972 18.7015 22.8158 18.7403 23.293 18.9197C24.5027 19.3711 25.7596 19.6842 27.0397 19.853C27.6874 19.9444 28.2789 20.2706 28.7017 20.7697C29.1246 21.2687 29.3492 21.9058 29.333 22.5597Z" stroke="#F3F3F3" stroke-width="4" stroke-linecap="round" stroke-linejoin="round"/>
</svg>
