<svg width="38" height="38" viewBox="0 0 38 38" fill="none" xmlns="http://www.w3.org/2000/svg">
<g clip-path="url(#clip0_368_445)">
<path d="M36.4158 4.75019C34.8996 5.81968 33.2209 6.63767 31.4442 7.17266C30.4906 6.07623 29.2233 5.29911 27.8137 4.9464C26.4041 4.59369 24.9201 4.68241 23.5626 5.20057C22.205 5.71872 21.0394 6.6413 20.2232 7.84354C19.4071 9.04577 18.9799 10.4697 18.9993 11.9226V13.5059C16.2169 13.5781 13.4598 12.961 10.9735 11.7096C8.48731 10.4582 6.34916 8.61132 4.74951 6.3335C4.74951 6.3335 -1.58375 20.5833 12.6661 26.9166C9.40529 29.13 5.52083 30.2399 1.58288 30.0832C15.8327 37.9998 33.2492 30.0832 33.2492 11.8751C33.2477 11.4341 33.2053 10.9941 33.1225 10.561C34.7385 8.96734 35.8788 6.95529 36.4158 4.75019Z" stroke="#F3F3F3" stroke-width="4" stroke-linecap="round" stroke-linejoin="round"/>
</g>
<defs>
<clipPath id="clip0_368_445">
<rect width="37.44" height="37.44" fill="white" transform="scale(1.01495)"/>
</clipPath>
</defs>
</svg>
