<svg width="41" height="41" viewBox="0 0 41 41" fill="none" xmlns="http://www.w3.org/2000/svg">
<path d="M29.8958 11.1042H29.9128M11.9582 3.41668H29.0416C33.759 3.41668 37.5833 7.24092 37.5833 11.9584V29.0417C37.5833 33.7592 33.759 37.5834 29.0416 37.5834H11.9582C7.24079 37.5834 3.41655 33.7592 3.41655 29.0417V11.9584C3.41655 7.24092 7.24079 3.41668 11.9582 3.41668ZM27.3333 19.4238C27.5441 20.8455 27.3012 22.2976 26.6393 23.5734C25.9773 24.8491 24.9299 25.8837 23.646 26.5299C22.3622 27.1761 20.9073 27.401 19.4882 27.1727C18.0692 26.9443 16.7582 26.2744 15.7419 25.258C14.7256 24.2417 14.0556 22.9308 13.8273 21.5117C13.5989 20.0927 13.8238 18.6378 14.47 17.3539C15.1162 16.0701 16.1508 15.0227 17.4266 14.3607C18.7024 13.6987 20.1544 13.4559 21.5762 13.6667C23.0264 13.8817 24.369 14.5575 25.4057 15.5942C26.4424 16.6309 27.1182 17.9735 27.3333 19.4238Z" stroke="#F3F3F3" stroke-width="4" stroke-linecap="round" stroke-linejoin="round"/>
</svg>
