<svg width="38" height="38" viewBox="0 0 38 38" fill="none" xmlns="http://www.w3.org/2000/svg">
<g clip-path="url(#clip0_0_132)">
<path d="M36.4158 4.74994C34.8996 5.81943 33.2209 6.63742 31.4442 7.17241C30.4906 6.07598 29.2233 5.29886 27.8137 4.94615C26.4041 4.59344 24.9201 4.68217 23.5626 5.20032C22.205 5.71847 21.0394 6.64105 20.2232 7.84329C19.4071 9.04552 18.9799 10.4694 18.9993 11.9224V13.5057C16.2169 13.5778 13.4598 12.9607 10.9735 11.7093C8.48731 10.4579 6.34916 8.61107 4.74951 6.33325C4.74951 6.33325 -1.58375 20.5831 12.6661 26.9164C9.40529 29.1298 5.52083 30.2396 1.58288 30.083C15.8327 37.9996 33.2492 30.083 33.2492 11.8749C33.2477 11.4338 33.2053 10.9939 33.1225 10.5607C34.7385 8.96709 35.8788 6.95504 36.4158 4.74994Z" stroke="#F3F3F3" stroke-width="4" stroke-linecap="round" stroke-linejoin="round"/>
</g>
<defs>
<clipPath id="clip0_0_132">
<rect width="37.44" height="37.44" fill="white" transform="scale(1.01495)"/>
</clipPath>
</defs>
</svg>
