<svg width="32" height="25" viewBox="0 0 32 25" fill="none" xmlns="http://www.w3.org/2000/svg">
<path d="M3.12501 25C2.26563 25 1.52995 24.6941 0.91797 24.0821C0.30599 23.4701 0 22.7344 0 21.875V3.12501C0 2.26563 0.30599 1.52995 0.91797 0.91797C1.52995 0.30599 2.26563 0 3.12501 0H28.125C28.9844 0 29.7201 0.30599 30.3321 0.91797C30.9441 1.52995 31.2501 2.26563 31.2501 3.12501V21.875C31.2501 22.7344 30.9441 23.4701 30.3321 24.0821C29.7201 24.6941 28.9844 25 28.125 25H3.12501ZM15.625 14.0625L3.12501 6.25001V21.875H28.125V6.25001L15.625 14.0625ZM15.625 10.9375L28.125 3.12501H3.12501L15.625 10.9375ZM3.12501 6.25001V3.12501V21.875V6.25001Z" fill="white"/>
</svg>
