<svg width="41" height="41" viewBox="0 0 41 41" fill="none" xmlns="http://www.w3.org/2000/svg">
<path d="M29.8958 11.1041H29.9129M11.9583 3.41656H29.0417C33.7591 3.41656 37.5834 7.24082 37.5834 11.9583V29.0417C37.5834 33.7591 33.7591 37.5834 29.0417 37.5834H11.9583C7.24082 37.5834 3.41656 33.7591 3.41656 29.0417V11.9583C3.41656 7.24082 7.24082 3.41656 11.9583 3.41656ZM27.3333 19.4237C27.5442 20.8455 27.3013 22.2975 26.6393 23.5733C25.9774 24.8491 24.93 25.8837 23.6461 26.5299C22.3622 27.1761 20.9073 27.401 19.4883 27.1726C18.0692 26.9443 16.7583 26.2743 15.742 25.258C14.7256 24.2416 14.0557 22.9307 13.8273 21.5117C13.599 20.0926 13.8239 18.6377 14.4701 17.3538C15.1163 16.07 16.1509 15.0226 17.4266 14.3606C18.7024 13.6986 20.1545 13.4558 21.5762 13.6666C23.0265 13.8817 24.3691 14.5574 25.4058 15.5941C26.4425 16.6308 27.1183 17.9735 27.3333 19.4237Z" stroke="#F3F3F3" stroke-width="4" stroke-linecap="round" stroke-linejoin="round"/>
</svg>
